<mxfile host="app.diagrams.net" modified="2022-03-18T19:44:22.569Z" agent="5.0 (Macintosh; Intel Mac OS X 10_15_7) AppleWebKit/605.1.15 (KHTML, like Gecko) Version/14.1.2 Safari/605.1.15" etag="qmECYiLXG9EAyoTzuL7s" version="17.1.3" type="github">
  <diagram id="Dzy8of7R1ZWi6Oljag11" name="Page-1">
    <mxGraphModel dx="946" dy="645" grid="1" gridSize="10" guides="1" tooltips="1" connect="1" arrows="1" fold="1" page="1" pageScale="1" pageWidth="827" pageHeight="1169" math="0" shadow="0">
      <root>
        <mxCell id="0" />
        <mxCell id="1" parent="0" />
        <mxCell id="ZZZHa9TMjWXiy_k1_7sV-1" value="TEAM" style="whiteSpace=wrap;html=1;align=center;" vertex="1" parent="1">
          <mxGeometry x="220" y="230" width="100" height="40" as="geometry" />
        </mxCell>
        <mxCell id="ZZZHa9TMjWXiy_k1_7sV-2" value="GAME&lt;br&gt;" style="whiteSpace=wrap;html=1;align=center;" vertex="1" parent="1">
          <mxGeometry x="530" y="180" width="100" height="40" as="geometry" />
        </mxCell>
        <mxCell id="ZZZHa9TMjWXiy_k1_7sV-3" value="PLAYER" style="whiteSpace=wrap;html=1;align=center;" vertex="1" parent="1">
          <mxGeometry x="420" y="400" width="100" height="40" as="geometry" />
        </mxCell>
        <mxCell id="ZZZHa9TMjWXiy_k1_7sV-4" value="City" style="ellipse;whiteSpace=wrap;html=1;align=center;" vertex="1" parent="1">
          <mxGeometry x="220" y="160" width="100" height="40" as="geometry" />
        </mxCell>
        <mxCell id="ZZZHa9TMjWXiy_k1_7sV-5" value="Name" style="ellipse;whiteSpace=wrap;html=1;align=center;" vertex="1" parent="1">
          <mxGeometry x="90" y="170" width="100" height="40" as="geometry" />
        </mxCell>
        <mxCell id="ZZZHa9TMjWXiy_k1_7sV-6" value="Coach" style="ellipse;whiteSpace=wrap;html=1;align=center;" vertex="1" parent="1">
          <mxGeometry x="90" y="230" width="100" height="40" as="geometry" />
        </mxCell>
        <mxCell id="ZZZHa9TMjWXiy_k1_7sV-8" value="host_team" style="ellipse;whiteSpace=wrap;html=1;align=center;" vertex="1" parent="1">
          <mxGeometry x="680" y="127" width="100" height="40" as="geometry" />
        </mxCell>
        <mxCell id="ZZZHa9TMjWXiy_k1_7sV-9" value="guest_team" style="ellipse;whiteSpace=wrap;html=1;align=center;" vertex="1" parent="1">
          <mxGeometry x="682" y="180" width="100" height="40" as="geometry" />
        </mxCell>
        <mxCell id="ZZZHa9TMjWXiy_k1_7sV-10" value="skill_level" style="ellipse;whiteSpace=wrap;html=1;align=center;" vertex="1" parent="1">
          <mxGeometry x="290" y="420" width="100" height="40" as="geometry" />
        </mxCell>
        <mxCell id="ZZZHa9TMjWXiy_k1_7sV-11" value="full_name" style="ellipse;whiteSpace=wrap;html=1;align=center;" vertex="1" parent="1">
          <mxGeometry x="540" y="380" width="100" height="40" as="geometry" />
        </mxCell>
        <mxCell id="ZZZHa9TMjWXiy_k1_7sV-12" value="first_name" style="ellipse;whiteSpace=wrap;html=1;align=center;" vertex="1" parent="1">
          <mxGeometry x="660" y="330" width="100" height="40" as="geometry" />
        </mxCell>
        <mxCell id="ZZZHa9TMjWXiy_k1_7sV-13" value="surname" style="ellipse;whiteSpace=wrap;html=1;align=center;" vertex="1" parent="1">
          <mxGeometry x="660" y="390" width="100" height="40" as="geometry" />
        </mxCell>
        <mxCell id="ZZZHa9TMjWXiy_k1_7sV-14" value="position" style="ellipse;whiteSpace=wrap;html=1;align=center;" vertex="1" parent="1">
          <mxGeometry x="540" y="430" width="100" height="40" as="geometry" />
        </mxCell>
        <mxCell id="ZZZHa9TMjWXiy_k1_7sV-15" value="captain" style="ellipse;whiteSpace=wrap;html=1;align=center;" vertex="1" parent="1">
          <mxGeometry x="290" y="470" width="100" height="40" as="geometry" />
        </mxCell>
        <mxCell id="ZZZHa9TMjWXiy_k1_7sV-16" value="score" style="ellipse;whiteSpace=wrap;html=1;align=center;" vertex="1" parent="1">
          <mxGeometry x="570" y="80" width="100" height="40" as="geometry" />
        </mxCell>
        <mxCell id="ZZZHa9TMjWXiy_k1_7sV-17" value="date" style="ellipse;whiteSpace=wrap;html=1;align=center;" vertex="1" parent="1">
          <mxGeometry x="684" y="230" width="100" height="40" as="geometry" />
        </mxCell>
        <mxCell id="ZZZHa9TMjWXiy_k1_7sV-22" value="set_injuries" style="ellipse;shape=doubleEllipse;margin=3;whiteSpace=wrap;html=1;align=center;" vertex="1" parent="1">
          <mxGeometry x="420" y="470" width="100" height="40" as="geometry" />
        </mxCell>
        <mxCell id="ZZZHa9TMjWXiy_k1_7sV-23" value="belongs" style="shape=rhombus;perimeter=rhombusPerimeter;whiteSpace=wrap;html=1;align=center;" vertex="1" parent="1">
          <mxGeometry x="309" y="317" width="90" height="40" as="geometry" />
        </mxCell>
        <mxCell id="ZZZHa9TMjWXiy_k1_7sV-24" value="player_id" style="ellipse;whiteSpace=wrap;html=1;align=center;fontStyle=4;" vertex="1" parent="1">
          <mxGeometry x="422" y="337" width="100" height="40" as="geometry" />
        </mxCell>
        <mxCell id="ZZZHa9TMjWXiy_k1_7sV-26" value="game_id" style="ellipse;whiteSpace=wrap;html=1;align=center;fontStyle=4;" vertex="1" parent="1">
          <mxGeometry x="450" y="90" width="100" height="40" as="geometry" />
        </mxCell>
        <mxCell id="ZZZHa9TMjWXiy_k1_7sV-27" value="team_id" style="ellipse;whiteSpace=wrap;html=1;align=center;fontStyle=4;" vertex="1" parent="1">
          <mxGeometry x="140" y="290" width="100" height="40" as="geometry" />
        </mxCell>
        <mxCell id="ZZZHa9TMjWXiy_k1_7sV-30" value="" style="endArrow=none;html=1;rounded=0;exitX=0.5;exitY=0;exitDx=0;exitDy=0;entryX=0.5;entryY=1;entryDx=0;entryDy=0;" edge="1" parent="1" source="ZZZHa9TMjWXiy_k1_7sV-1" target="ZZZHa9TMjWXiy_k1_7sV-4">
          <mxGeometry relative="1" as="geometry">
            <mxPoint x="330" y="330" as="sourcePoint" />
            <mxPoint x="490" y="330" as="targetPoint" />
          </mxGeometry>
        </mxCell>
        <mxCell id="ZZZHa9TMjWXiy_k1_7sV-31" value="" style="endArrow=none;html=1;rounded=0;exitX=0.5;exitY=1;exitDx=0;exitDy=0;entryX=1;entryY=0;entryDx=0;entryDy=0;" edge="1" parent="1" source="ZZZHa9TMjWXiy_k1_7sV-1" target="ZZZHa9TMjWXiy_k1_7sV-27">
          <mxGeometry relative="1" as="geometry">
            <mxPoint x="330" y="330" as="sourcePoint" />
            <mxPoint x="490" y="330" as="targetPoint" />
          </mxGeometry>
        </mxCell>
        <mxCell id="ZZZHa9TMjWXiy_k1_7sV-32" value="" style="endArrow=none;html=1;rounded=0;exitX=1;exitY=0.5;exitDx=0;exitDy=0;entryX=0;entryY=0.5;entryDx=0;entryDy=0;" edge="1" parent="1" source="ZZZHa9TMjWXiy_k1_7sV-6" target="ZZZHa9TMjWXiy_k1_7sV-1">
          <mxGeometry relative="1" as="geometry">
            <mxPoint x="330" y="330" as="sourcePoint" />
            <mxPoint x="490" y="330" as="targetPoint" />
          </mxGeometry>
        </mxCell>
        <mxCell id="ZZZHa9TMjWXiy_k1_7sV-33" value="" style="endArrow=none;html=1;rounded=0;exitX=1;exitY=1;exitDx=0;exitDy=0;entryX=0;entryY=0;entryDx=0;entryDy=0;" edge="1" parent="1" source="ZZZHa9TMjWXiy_k1_7sV-5" target="ZZZHa9TMjWXiy_k1_7sV-1">
          <mxGeometry relative="1" as="geometry">
            <mxPoint x="330" y="330" as="sourcePoint" />
            <mxPoint x="490" y="330" as="targetPoint" />
          </mxGeometry>
        </mxCell>
        <mxCell id="ZZZHa9TMjWXiy_k1_7sV-34" value="" style="endArrow=none;html=1;rounded=0;exitX=1;exitY=0.5;exitDx=0;exitDy=0;entryX=0;entryY=0.5;entryDx=0;entryDy=0;" edge="1" parent="1" source="ZZZHa9TMjWXiy_k1_7sV-2" target="ZZZHa9TMjWXiy_k1_7sV-9">
          <mxGeometry relative="1" as="geometry">
            <mxPoint x="330" y="330" as="sourcePoint" />
            <mxPoint x="640" y="170" as="targetPoint" />
          </mxGeometry>
        </mxCell>
        <mxCell id="ZZZHa9TMjWXiy_k1_7sV-35" value="" style="endArrow=none;html=1;rounded=0;entryX=0.75;entryY=0;entryDx=0;entryDy=0;exitX=0;exitY=0.5;exitDx=0;exitDy=0;" edge="1" parent="1" source="ZZZHa9TMjWXiy_k1_7sV-8" target="ZZZHa9TMjWXiy_k1_7sV-2">
          <mxGeometry relative="1" as="geometry">
            <mxPoint x="330" y="330" as="sourcePoint" />
            <mxPoint x="490" y="330" as="targetPoint" />
          </mxGeometry>
        </mxCell>
        <mxCell id="ZZZHa9TMjWXiy_k1_7sV-36" value="" style="endArrow=none;html=1;rounded=0;entryX=0.5;entryY=0;entryDx=0;entryDy=0;exitX=0.5;exitY=1;exitDx=0;exitDy=0;" edge="1" parent="1" source="ZZZHa9TMjWXiy_k1_7sV-16" target="ZZZHa9TMjWXiy_k1_7sV-2">
          <mxGeometry relative="1" as="geometry">
            <mxPoint x="330" y="330" as="sourcePoint" />
            <mxPoint x="490" y="330" as="targetPoint" />
          </mxGeometry>
        </mxCell>
        <mxCell id="ZZZHa9TMjWXiy_k1_7sV-37" value="" style="endArrow=none;html=1;rounded=0;entryX=0.25;entryY=0;entryDx=0;entryDy=0;exitX=0.5;exitY=1;exitDx=0;exitDy=0;" edge="1" parent="1" source="ZZZHa9TMjWXiy_k1_7sV-26" target="ZZZHa9TMjWXiy_k1_7sV-2">
          <mxGeometry relative="1" as="geometry">
            <mxPoint x="330" y="330" as="sourcePoint" />
            <mxPoint x="490" y="330" as="targetPoint" />
          </mxGeometry>
        </mxCell>
        <mxCell id="ZZZHa9TMjWXiy_k1_7sV-38" value="" style="endArrow=none;html=1;rounded=0;entryX=0;entryY=0.5;entryDx=0;entryDy=0;exitX=1;exitY=1;exitDx=0;exitDy=0;" edge="1" parent="1" source="ZZZHa9TMjWXiy_k1_7sV-2" target="ZZZHa9TMjWXiy_k1_7sV-17">
          <mxGeometry relative="1" as="geometry">
            <mxPoint x="330" y="330" as="sourcePoint" />
            <mxPoint x="490" y="330" as="targetPoint" />
          </mxGeometry>
        </mxCell>
        <mxCell id="ZZZHa9TMjWXiy_k1_7sV-40" value="" style="endArrow=none;html=1;rounded=0;entryX=1;entryY=0;entryDx=0;entryDy=0;exitX=0.25;exitY=1;exitDx=0;exitDy=0;" edge="1" parent="1" source="ZZZHa9TMjWXiy_k1_7sV-3" target="ZZZHa9TMjWXiy_k1_7sV-15">
          <mxGeometry relative="1" as="geometry">
            <mxPoint x="330" y="330" as="sourcePoint" />
            <mxPoint x="490" y="330" as="targetPoint" />
          </mxGeometry>
        </mxCell>
        <mxCell id="ZZZHa9TMjWXiy_k1_7sV-41" value="" style="endArrow=none;html=1;rounded=0;exitX=0;exitY=0.25;exitDx=0;exitDy=0;" edge="1" parent="1" source="ZZZHa9TMjWXiy_k1_7sV-3" target="ZZZHa9TMjWXiy_k1_7sV-10">
          <mxGeometry relative="1" as="geometry">
            <mxPoint x="330" y="330" as="sourcePoint" />
            <mxPoint x="490" y="330" as="targetPoint" />
          </mxGeometry>
        </mxCell>
        <mxCell id="ZZZHa9TMjWXiy_k1_7sV-42" value="" style="endArrow=none;html=1;rounded=0;entryX=0.5;entryY=1;entryDx=0;entryDy=0;exitX=0.5;exitY=0;exitDx=0;exitDy=0;" edge="1" parent="1" source="ZZZHa9TMjWXiy_k1_7sV-22" target="ZZZHa9TMjWXiy_k1_7sV-3">
          <mxGeometry relative="1" as="geometry">
            <mxPoint x="330" y="330" as="sourcePoint" />
            <mxPoint x="490" y="330" as="targetPoint" />
          </mxGeometry>
        </mxCell>
        <mxCell id="ZZZHa9TMjWXiy_k1_7sV-43" value="" style="endArrow=none;html=1;rounded=0;exitX=0.5;exitY=1;exitDx=0;exitDy=0;" edge="1" parent="1" source="ZZZHa9TMjWXiy_k1_7sV-24">
          <mxGeometry relative="1" as="geometry">
            <mxPoint x="467" y="380" as="sourcePoint" />
            <mxPoint x="472" y="400" as="targetPoint" />
          </mxGeometry>
        </mxCell>
        <mxCell id="ZZZHa9TMjWXiy_k1_7sV-44" value="" style="endArrow=none;html=1;rounded=0;entryX=0;entryY=1;entryDx=0;entryDy=0;exitX=1;exitY=0.5;exitDx=0;exitDy=0;" edge="1" parent="1" source="ZZZHa9TMjWXiy_k1_7sV-3" target="ZZZHa9TMjWXiy_k1_7sV-11">
          <mxGeometry relative="1" as="geometry">
            <mxPoint x="330" y="330" as="sourcePoint" />
            <mxPoint x="490" y="330" as="targetPoint" />
          </mxGeometry>
        </mxCell>
        <mxCell id="ZZZHa9TMjWXiy_k1_7sV-45" value="" style="endArrow=none;html=1;rounded=0;entryX=0;entryY=1;entryDx=0;entryDy=0;exitX=1;exitY=1;exitDx=0;exitDy=0;" edge="1" parent="1" source="ZZZHa9TMjWXiy_k1_7sV-11" target="ZZZHa9TMjWXiy_k1_7sV-13">
          <mxGeometry relative="1" as="geometry">
            <mxPoint x="330" y="330" as="sourcePoint" />
            <mxPoint x="490" y="330" as="targetPoint" />
          </mxGeometry>
        </mxCell>
        <mxCell id="ZZZHa9TMjWXiy_k1_7sV-46" value="" style="endArrow=none;html=1;rounded=0;entryX=0;entryY=1;entryDx=0;entryDy=0;exitX=1;exitY=0;exitDx=0;exitDy=0;" edge="1" parent="1" source="ZZZHa9TMjWXiy_k1_7sV-11" target="ZZZHa9TMjWXiy_k1_7sV-12">
          <mxGeometry relative="1" as="geometry">
            <mxPoint x="330" y="330" as="sourcePoint" />
            <mxPoint x="490" y="330" as="targetPoint" />
          </mxGeometry>
        </mxCell>
        <mxCell id="ZZZHa9TMjWXiy_k1_7sV-51" value="" style="endArrow=none;html=1;rounded=0;entryX=0;entryY=0;entryDx=0;entryDy=0;exitX=1;exitY=1;exitDx=0;exitDy=0;" edge="1" parent="1" source="ZZZHa9TMjWXiy_k1_7sV-23" target="ZZZHa9TMjWXiy_k1_7sV-3">
          <mxGeometry relative="1" as="geometry">
            <mxPoint x="330" y="330" as="sourcePoint" />
            <mxPoint x="490" y="330" as="targetPoint" />
          </mxGeometry>
        </mxCell>
        <mxCell id="ZZZHa9TMjWXiy_k1_7sV-52" value="N" style="resizable=0;html=1;align=right;verticalAlign=bottom;" connectable="0" vertex="1" parent="ZZZHa9TMjWXiy_k1_7sV-51">
          <mxGeometry x="1" relative="1" as="geometry" />
        </mxCell>
        <mxCell id="ZZZHa9TMjWXiy_k1_7sV-53" value="" style="shape=link;html=1;rounded=0;exitX=0;exitY=0;exitDx=0;exitDy=0;" edge="1" parent="1" source="ZZZHa9TMjWXiy_k1_7sV-23">
          <mxGeometry relative="1" as="geometry">
            <mxPoint x="330" y="330" as="sourcePoint" />
            <mxPoint x="270" y="270" as="targetPoint" />
          </mxGeometry>
        </mxCell>
        <mxCell id="ZZZHa9TMjWXiy_k1_7sV-54" value="1" style="resizable=0;html=1;align=right;verticalAlign=bottom;" connectable="0" vertex="1" parent="ZZZHa9TMjWXiy_k1_7sV-53">
          <mxGeometry x="1" relative="1" as="geometry" />
        </mxCell>
        <mxCell id="ZZZHa9TMjWXiy_k1_7sV-55" value="plays" style="shape=rhombus;perimeter=rhombusPerimeter;whiteSpace=wrap;html=1;align=center;" vertex="1" parent="1">
          <mxGeometry x="380" y="203" width="90" height="40" as="geometry" />
        </mxCell>
        <mxCell id="ZZZHa9TMjWXiy_k1_7sV-58" value="" style="shape=link;html=1;rounded=0;entryX=1;entryY=0.5;entryDx=0;entryDy=0;exitX=0;exitY=1;exitDx=0;exitDy=0;" edge="1" parent="1" source="ZZZHa9TMjWXiy_k1_7sV-55" target="ZZZHa9TMjWXiy_k1_7sV-1">
          <mxGeometry relative="1" as="geometry">
            <mxPoint x="330" y="330" as="sourcePoint" />
            <mxPoint x="490" y="330" as="targetPoint" />
          </mxGeometry>
        </mxCell>
        <mxCell id="ZZZHa9TMjWXiy_k1_7sV-59" value="N" style="resizable=0;html=1;align=right;verticalAlign=bottom;" connectable="0" vertex="1" parent="ZZZHa9TMjWXiy_k1_7sV-58">
          <mxGeometry x="1" relative="1" as="geometry" />
        </mxCell>
      </root>
    </mxGraphModel>
  </diagram>
</mxfile>
